<svg xmlns="http://www.w3.org/2000/svg" width="24" height="24" viewBox="0 0 24 24"><rect x=".6" y=".6" width="22.8" height="22.8" rx="4.5" fill="#30B9CB"/><g data-role="file-glyph" data-safe-box="4 4 16 16" color="#FFFFFF"><g transform="translate(1.333333 1.333333) scale(0.88888889)"><path d="M12,3C7.58,3 4,4.79 4,7C4,9.21 7.58,11 12,11C16.42,11 20,9.21 20,7C20,4.79 16.42,3 12,3M4,9V12C4,14.21 7.58,16 12,16C16.42,16 20,14.21 20,12V9C20,11.21 16.42,13 12,13C7.58,13 4,11.21 4,9M4,14V17C4,19.21 7.58,21 12,21C16.42,21 20,19.21 20,17V14C20,16.21 16.42,18 12,18C7.58,18 4,16.21 4,14Z" fill="currentColor"/></g></g></svg>
