<svg xmlns="http://www.w3.org/2000/svg" width="24" height="24" viewBox="0 0 24 24"><path data-role="folder-shell" d="M1.5 5.5a2 2 0 0 1 2-2H8.6c.6 0 1.1.2 1.5.6l2 1.9h8.4a2 2 0 0 1 2 2v10.5a2 2 0 0 1-2 2h-17a2 2 0 0 1-2-2Z" fill="#9E2471"/><path data-role="folder-front" d="M1.5 8h19a2 2 0 0 1 2 2v8.5a2 2 0 0 1-2 2h-17a2 2 0 0 1-2-2Z" fill="#D22893"/><g data-role="business-motif" transform="translate(4.416667 4.416667) scale(0.86111111)"><path d="M17.5,12A1.5,1.5 0 0,1 16,10.5A1.5,1.5 0 0,1 17.5,9A1.5,1.5 0 0,1 19,10.5A1.5,1.5 0 0,1 17.5,12M14.5,8A1.5,1.5 0 0,1 13,6.5A1.5,1.5 0 0,1 14.5,5A1.5,1.5 0 0,1 16,6.5A1.5,1.5 0 0,1 14.5,8M9.5,8A1.5,1.5 0 0,1 8,6.5A1.5,1.5 0 0,1 9.5,5A1.5,1.5 0 0,1 11,6.5A1.5,1.5 0 0,1 9.5,8M6.5,12A1.5,1.5 0 0,1 5,10.5A1.5,1.5 0 0,1 6.5,9A1.5,1.5 0 0,1 8,10.5A1.5,1.5 0 0,1 6.5,12M12,3A9,9 0 0,0 3,12A9,9 0 0,0 12,21A1.5,1.5 0 0,0 13.5,19.5C13.5,19.11 13.35,18.76 13.11,18.5C12.88,18.23 12.73,17.88 12.73,17.5A1.5,1.5 0 0,1 14.23,16H16A5,5 0 0,0 21,11C21,6.58 16.97,3 12,3Z" fill="#F8BFE3"/></g></svg>
