<svg xmlns="http://www.w3.org/2000/svg" width="24" height="24" viewBox="0 0 24 24"><path data-role="folder-shell" d="M1.5 5.5a2 2 0 0 1 2-2H8.6c.6 0 1.1.2 1.5.6l2 1.9h8.4a2 2 0 0 1 2 2v10.5a2 2 0 0 1-2 2h-17a2 2 0 0 1-2-2Z" fill="#245E9E"/><path data-role="folder-front" d="M4 8.5h17.2c.9 0 1.5.8 1.2 1.6l-2.2 8.9c-.2.9-1 1.5-1.9 1.5H3.5c-1.3 0-2.2-1.1-1.9-2.3l1.3-8.1c.1-.9.6-1.6 1.1-1.6Z" fill="#2879D2"/><g data-role="business-motif" transform="translate(9.818182 6.295455) scale(0.70454545)"><path d="M16.5,6V17.5A4,4 0 0,1 12.5,21.5A4,4 0 0,1 8.5,17.5V5A2.5,2.5 0 0,1 11,2.5A2.5,2.5 0 0,1 13.5,5V15.5A1,1 0 0,1 12.5,16.5A1,1 0 0,1 11.5,15.5V6H10V15.5A2.5,2.5 0 0,0 12.5,18A2.5,2.5 0 0,0 15,15.5V5A4,4 0 0,0 11,1A4,4 0 0,0 7,5V17.5A5.5,5.5 0 0,0 12.5,23A5.5,5.5 0 0,0 18,17.5V6H16.5Z" fill="#BFDAF8"/></g></svg>
