<svg xmlns="http://www.w3.org/2000/svg" width="24" height="24" viewBox="0 0 24 24"><path data-role="folder-shell" d="M1.5 5.5a2 2 0 0 1 2-2H8.6c.6 0 1.1.2 1.5.6l2 1.9h8.4a2 2 0 0 1 2 2v10.5a2 2 0 0 1-2 2h-17a2 2 0 0 1-2-2Z" fill="#245E9E"/><path data-role="folder-front" d="M4 8.5h17.2c.9 0 1.5.8 1.2 1.6l-2.2 8.9c-.2.9-1 1.5-1.9 1.5H3.5c-1.3 0-2.2-1.1-1.9-2.3l1.3-8.1c.1-.9.6-1.6 1.1-1.6Z" fill="#2878D2"/><g data-role="business-motif" transform="translate(4.416667 4.416667) scale(0.86111111)"><path d="M13,3V9H21V3M13,21H21V11H13M3,21H11V15H3M3,13H11V3H3V13Z" fill="#BFDAF8"/></g></svg>
