<svg xmlns="http://www.w3.org/2000/svg" width="24" height="24" viewBox="0 0 24 24"><path data-role="folder-shell" d="M1.5 5.5a2 2 0 0 1 2-2H8.6c.6 0 1.1.2 1.5.6l2 1.9h8.4a2 2 0 0 1 2 2v10.5a2 2 0 0 1-2 2h-17a2 2 0 0 1-2-2Z" fill="#249E62"/><path data-role="folder-front" d="M1.5 8h19a2 2 0 0 1 2 2v8.5a2 2 0 0 1-2 2h-17a2 2 0 0 1-2-2Z" fill="#28D27E"/><g data-role="business-motif" transform="translate(4.900000 5.700000) scale(0.80000000)"><path d="M20,19V7H4V19H20M20,3A2,2 0 0,1 22,5V19A2,2 0 0,1 20,21H4A2,2 0 0,1 2,19V5C2,3.89 2.9,3 4,3H20M13,17V15H18V17H13M9.58,13L5.57,9H8.4L11.7,12.3C12.09,12.69 12.09,13.33 11.7,13.72L8.42,17H5.59L9.58,13Z" fill="#BFF8DC"/></g></svg>
